<svg width="20" height="20" viewBox="0 0 20 20" fill="none" xmlns="http://www.w3.org/2000/svg">
<path d="M12.5001 18.9583H7.50008C2.97508 18.9583 1.04175 17.025 1.04175 12.5V7.49999C1.04175 2.97499 2.97508 1.04166 7.50008 1.04166H12.5001C17.0251 1.04166 18.9584 2.97499 18.9584 7.49999V12.5C18.9584 17.025 17.0251 18.9583 12.5001 18.9583ZM7.50008 2.29166C3.65841 2.29166 2.29175 3.65832 2.29175 7.49999V12.5C2.29175 16.3417 3.65841 17.7083 7.50008 17.7083H12.5001C16.3417 17.7083 17.7084 16.3417 17.7084 12.5V7.49999C17.7084 3.65832 16.3417 2.29166 12.5001 2.29166H7.50008Z" fill="#74797D"/>
<path d="M6.10826 12.7C5.97493 12.7 5.8416 12.6583 5.72493 12.5667C5.44993 12.3583 5.39993 11.9667 5.60826 11.6917L7.5916 9.11667C7.83326 8.80834 8.17493 8.60834 8.5666 8.55834C8.94993 8.50834 9.3416 8.61667 9.64993 8.85834L11.1749 10.0583C11.2333 10.1083 11.2916 10.1083 11.3333 10.1C11.3666 10.1 11.4249 10.0833 11.4749 10.0167L13.3999 7.53334C13.6083 7.25834 14.0083 7.20834 14.2749 7.42501C14.5499 7.63334 14.5999 8.02501 14.3833 8.30001L12.4583 10.7833C12.2166 11.0917 11.8749 11.2917 11.4833 11.3333C11.0916 11.3833 10.7083 11.275 10.3999 11.0333L8.87493 9.83334C8.8166 9.78334 8.74993 9.78334 8.7166 9.79167C8.68326 9.79167 8.62493 9.80834 8.57493 9.87501L6.5916 12.45C6.48326 12.6167 6.29993 12.7 6.10826 12.7Z" fill="#74797D"/>
</svg>
