<svg width="32" height="32" viewBox="0 0 32 32" fill="none" xmlns="http://www.w3.org/2000/svg">
<path d="M16 2.66663C8.63996 2.66663 2.66663 8.63996 2.66663 16C2.66663 23.36 8.63996 29.3333 16 29.3333C23.36 29.3333 29.3333 23.36 29.3333 16C29.3333 8.63996 23.36 2.66663 16 2.66663ZM20.6666 17H13.7466L16.04 19.2933C16.4266 19.68 16.4266 20.32 16.04 20.7066C15.84 20.9066 15.5866 21 15.3333 21C15.08 21 14.8266 20.9066 14.6266 20.7066L10.6266 16.7066C10.24 16.32 10.24 15.68 10.6266 15.2933L14.6266 11.2933C15.0133 10.9066 15.6533 10.9066 16.04 11.2933C16.4266 11.68 16.4266 12.32 16.04 12.7066L13.7466 15H20.6666C21.2133 15 21.6666 15.4533 21.6666 16C21.6666 16.5466 21.2133 17 20.6666 17Z" fill="white"/>
</svg>
