<svg width="20" height="20" viewBox="0 0 20 20" fill="none" xmlns="http://www.w3.org/2000/svg">
<path d="M12.5001 18.9583H7.50008C2.97508 18.9583 1.04175 17.025 1.04175 12.5V7.50001C1.04175 2.97501 2.97508 1.04167 7.50008 1.04167H12.5001C17.0251 1.04167 18.9584 2.97501 18.9584 7.50001V12.5C18.9584 17.025 17.0251 18.9583 12.5001 18.9583ZM7.50008 2.29167C3.65841 2.29167 2.29175 3.65834 2.29175 7.50001V12.5C2.29175 16.3417 3.65841 17.7083 7.50008 17.7083H12.5001C16.3417 17.7083 17.7084 16.3417 17.7084 12.5V7.50001C17.7084 3.65834 16.3417 2.29167 12.5001 2.29167H7.50008Z" fill="#74797D"/>
<path d="M10 15.7917C9.80002 15.7917 9.60003 15.7416 9.43336 15.65C8.46669 15.125 6.75836 14.5583 5.68336 14.4166L5.52502 14.3916C4.70836 14.2916 4.05835 13.5583 4.05835 12.7167V6.29997C4.05835 5.82497 4.25837 5.36664 4.60004 5.04997C4.95004 4.73331 5.40002 4.57498 5.88335 4.61665C7.10002 4.71665 8.8667 5.29999 9.90837 5.94999L9.99168 5.99999L10.025 5.97499C11.075 5.31665 12.8417 4.72498 14.0667 4.61665C14.0834 4.61665 14.1333 4.61665 14.15 4.61665C14.5833 4.57498 15.05 4.74164 15.3917 5.04997C15.7417 5.36664 15.9333 5.8083 15.9333 6.29163V12.7C15.9333 13.5333 15.2833 14.2666 14.4583 14.375L14.2834 14.4C13.2167 14.5416 11.5 15.1083 10.55 15.6333C10.3917 15.75 10.2 15.7917 10 15.7917ZM5.7417 5.87497C5.62503 5.87497 5.525 5.91664 5.45 5.9833C5.35834 6.06664 5.31669 6.18332 5.31669 6.30832V12.725C5.31669 12.925 5.50003 13.1333 5.6917 13.1583L5.85004 13.1833C7.0667 13.35 8.93337 13.9583 10.0167 14.55C11.025 13.9666 12.9 13.3417 14.125 13.1833L14.3083 13.1583C14.5 13.1333 14.6833 12.925 14.6833 12.725V6.31663C14.6833 6.1833 14.6334 6.07498 14.55 5.99165C14.4584 5.90831 14.3417 5.87497 14.2083 5.88331C14.1917 5.88331 14.1417 5.88331 14.125 5.88331C13.1584 5.96664 11.5667 6.49997 10.7 7.04997L10.6167 7.09997C10.25 7.32497 9.73336 7.32498 9.38336 7.10831L9.25834 7.03331C8.38334 6.48331 6.79169 5.9583 5.78336 5.87497C5.76669 5.87497 5.75837 5.87497 5.7417 5.87497Z" fill="#74797D"/>
<path d="M10 15.3417C9.65833 15.3417 9.375 15.0583 9.375 14.7167V6.74998C9.375 6.40832 9.65833 6.12498 10 6.12498C10.3417 6.12498 10.625 6.40832 10.625 6.74998V14.7167C10.625 15.0666 10.3417 15.3417 10 15.3417Z" fill="#74797D"/>
</svg>
