<svg width="20" height="20" viewBox="0 0 20 20" fill="none" xmlns="http://www.w3.org/2000/svg">
<path d="M10.0001 18.4C9.75008 18.4 9.50008 18.3417 9.29175 18.225C7.73341 17.375 4.99175 16.475 3.27508 16.25L3.03341 16.2167C1.94175 16.0833 1.04175 15.0583 1.04175 13.95V3.88332C1.04175 3.22499 1.30008 2.62499 1.77508 2.19165C2.25008 1.75832 2.86675 1.54999 3.51675 1.60832C5.35008 1.74999 8.11675 2.66665 9.68342 3.64999L9.88342 3.76665C9.94175 3.79999 10.0667 3.79999 10.1167 3.77499L10.2501 3.69165C11.8167 2.70832 14.5834 1.77499 16.4251 1.61665C16.4417 1.61665 16.5084 1.61665 16.5251 1.61665C17.1334 1.55832 17.7584 1.77499 18.2251 2.20832C18.7001 2.64165 18.9584 3.24165 18.9584 3.89999V13.9583C18.9584 15.075 18.0584 16.0917 16.9584 16.225L16.6834 16.2583C14.9667 16.4833 12.2167 17.3917 10.6917 18.2333C10.4917 18.35 10.2501 18.4 10.0001 18.4ZM3.31675 2.84999C3.05008 2.84999 2.80841 2.94165 2.61675 3.11665C2.40841 3.30832 2.29175 3.58332 2.29175 3.88332V13.95C2.29175 14.4417 2.71675 14.9167 3.19175 14.9833L3.44175 15.0167C5.31675 15.2667 8.19175 16.2083 9.85841 17.1167C9.93342 17.15 10.0417 17.1583 10.0834 17.1417C11.7501 16.2167 14.6417 15.2667 16.5251 15.0167L16.8084 14.9833C17.2834 14.925 17.7084 14.4417 17.7084 13.95V3.89165C17.7084 3.58332 17.5917 3.31665 17.3834 3.11665C17.1667 2.92499 16.8917 2.83332 16.5834 2.84999C16.5667 2.84999 16.5001 2.84999 16.4834 2.84999C14.8917 2.99165 12.3251 3.84999 10.9251 4.72499L10.7917 4.81665C10.3334 5.09999 9.68342 5.09999 9.24175 4.82499L9.04175 4.70832C7.61675 3.83332 5.05008 2.98332 3.41675 2.84999C3.38341 2.84999 3.35008 2.84999 3.31675 2.84999Z" fill="#74797D"/>
<path d="M10 17.7C9.65833 17.7 9.375 17.4167 9.375 17.075V4.57501C9.375 4.23335 9.65833 3.95001 10 3.95001C10.3417 3.95001 10.625 4.23335 10.625 4.57501V17.075C10.625 17.425 10.3417 17.7 10 17.7Z" fill="#74797D"/>
<path d="M6.45825 7.70001H4.58325C4.24159 7.70001 3.95825 7.41668 3.95825 7.07501C3.95825 6.73335 4.24159 6.45001 4.58325 6.45001H6.45825C6.79992 6.45001 7.08325 6.73335 7.08325 7.07501C7.08325 7.41668 6.79992 7.70001 6.45825 7.70001Z" fill="#74797D"/>
<path d="M7.08325 10.2H4.58325C4.24159 10.2 3.95825 9.91668 3.95825 9.57501C3.95825 9.23335 4.24159 8.95001 4.58325 8.95001H7.08325C7.42492 8.95001 7.70825 9.23335 7.70825 9.57501C7.70825 9.91668 7.42492 10.2 7.08325 10.2Z" fill="#74797D"/>
</svg>
