<svg width="20" height="20" viewBox="0 0 20 20" fill="none" xmlns="http://www.w3.org/2000/svg">
<path d="M9.99991 11.0833C9.89157 11.0833 9.78324 11.0583 9.68324 11L2.32491 6.74168C2.03324 6.56668 1.92491 6.18335 2.09991 5.88335C2.27491 5.58335 2.65824 5.48335 2.95824 5.65835L9.99991 9.73335L16.9999 5.68335C17.2999 5.50835 17.6832 5.61668 17.8582 5.90835C18.0332 6.20835 17.9249 6.59168 17.6332 6.76668L10.3249 11C10.2166 11.05 10.1082 11.0833 9.99991 11.0833Z" fill="#74797D"/>
<path d="M10 18.6333C9.65833 18.6333 9.375 18.35 9.375 18.0083V10.45C9.375 10.1083 9.65833 9.82501 10 9.82501C10.3417 9.82501 10.625 10.1083 10.625 10.45V18.0083C10.625 18.35 10.3417 18.6333 10 18.6333Z" fill="#74797D"/>
<path d="M10 18.9583C9.2667 18.9583 8.5417 18.8 7.9667 18.4833L3.5167 16.0083C2.30837 15.3417 1.3667 13.7333 1.3667 12.35V7.64166C1.3667 6.25832 2.30837 4.65832 3.5167 3.98332L7.9667 1.51666C9.10837 0.883323 10.8917 0.883323 12.0334 1.51666L16.4834 3.99166C17.6917 4.65832 18.6334 6.26666 18.6334 7.64999V12.3583C18.6334 13.7417 17.6917 15.3417 16.4834 16.0167L12.0334 18.4833C11.4584 18.8 10.7334 18.9583 10 18.9583ZM10 2.29166C9.47503 2.29166 8.95837 2.39999 8.57503 2.60832L4.12503 5.08332C3.32503 5.52499 2.6167 6.72499 2.6167 7.64166V12.35C2.6167 13.2667 3.32503 14.4667 4.12503 14.9167L8.57503 17.3917C9.33337 17.8167 10.6667 17.8167 11.425 17.3917L15.875 14.9167C16.675 14.4667 17.3834 13.275 17.3834 12.35V7.64166C17.3834 6.72499 16.675 5.52499 15.875 5.07499L11.425 2.59999C11.0417 2.39999 10.525 2.29166 10 2.29166Z" fill="#74797D"/>
</svg>
