<svg width="20" height="20" viewBox="0 0 20 20" fill="none" xmlns="http://www.w3.org/2000/svg">
<path d="M5.41675 18.9583C5.07508 18.9583 4.79175 18.675 4.79175 18.3333V12.5C4.79175 12.1583 5.07508 11.875 5.41675 11.875C5.75841 11.875 6.04175 12.1583 6.04175 12.5V18.3333C6.04175 18.675 5.75841 18.9583 5.41675 18.9583Z" fill="#74797D"/>
<path d="M5.41675 4.79166C5.07508 4.79166 4.79175 4.50832 4.79175 4.16666V1.66666C4.79175 1.32499 5.07508 1.04166 5.41675 1.04166C5.75841 1.04166 6.04175 1.32499 6.04175 1.66666V4.16666C6.04175 4.50832 5.75841 4.79166 5.41675 4.79166Z" fill="#74797D"/>
<path d="M14.5833 18.9583C14.2416 18.9583 13.9583 18.675 13.9583 18.3333V15.8333C13.9583 15.4917 14.2416 15.2083 14.5833 15.2083C14.9249 15.2083 15.2083 15.4917 15.2083 15.8333V18.3333C15.2083 18.675 14.9249 18.9583 14.5833 18.9583Z" fill="#74797D"/>
<path d="M14.5833 8.12499C14.2416 8.12499 13.9583 7.84166 13.9583 7.49999V1.66666C13.9583 1.32499 14.2416 1.04166 14.5833 1.04166C14.9249 1.04166 15.2083 1.32499 15.2083 1.66666V7.49999C15.2083 7.84166 14.9249 8.12499 14.5833 8.12499Z" fill="#74797D"/>
<path d="M6.25008 13.125H4.58341C3.15008 13.125 2.29175 12.2667 2.29175 10.8333V5.83332C2.29175 4.39999 3.15008 3.54166 4.58341 3.54166H6.25008C7.68341 3.54166 8.54175 4.39999 8.54175 5.83332V10.8333C8.54175 12.2667 7.68341 13.125 6.25008 13.125ZM4.58341 4.79166C3.84175 4.79166 3.54175 5.09166 3.54175 5.83332V10.8333C3.54175 11.575 3.84175 11.875 4.58341 11.875H6.25008C6.99175 11.875 7.29175 11.575 7.29175 10.8333V5.83332C7.29175 5.09166 6.99175 4.79166 6.25008 4.79166H4.58341Z" fill="#74797D"/>
<path d="M15.4166 16.4583H13.7499C12.3166 16.4583 11.4583 15.6 11.4583 14.1667V9.16667C11.4583 7.73333 12.3166 6.875 13.7499 6.875H15.4166C16.8499 6.875 17.7083 7.73333 17.7083 9.16667V14.1667C17.7083 15.6 16.8499 16.4583 15.4166 16.4583ZM13.7499 8.125C13.0083 8.125 12.7083 8.425 12.7083 9.16667V14.1667C12.7083 14.9083 13.0083 15.2083 13.7499 15.2083H15.4166C16.1583 15.2083 16.4583 14.9083 16.4583 14.1667V9.16667C16.4583 8.425 16.1583 8.125 15.4166 8.125H13.7499Z" fill="#74797D"/>
</svg>
