<svg width="20" height="20" viewBox="0 0 20 20" fill="none" xmlns="http://www.w3.org/2000/svg">
<path d="M11.9999 17.2916H7.99992C4.34159 17.2916 2.70825 15.6583 2.70825 12V7.99998C2.70825 4.34165 4.34159 2.70831 7.99992 2.70831H11.9999C15.6583 2.70831 17.2916 4.34165 17.2916 7.99998V12C17.2916 15.6583 15.6583 17.2916 11.9999 17.2916ZM7.99992 3.95831C5.01659 3.95831 3.95825 5.01665 3.95825 7.99998V12C3.95825 14.9833 5.01659 16.0416 7.99992 16.0416H11.9999C14.9833 16.0416 16.0416 14.9833 16.0416 12V7.99998C16.0416 5.01665 14.9833 3.95831 11.9999 3.95831H7.99992Z" fill="#74797D"/>
<path d="M11.2499 14.7916H8.74992C6.33325 14.7916 5.20825 13.6666 5.20825 11.25V8.74998C5.20825 6.33331 6.33325 5.20831 8.74992 5.20831H11.2499C13.6666 5.20831 14.7916 6.33331 14.7916 8.74998V11.25C14.7916 13.6666 13.6666 14.7916 11.2499 14.7916ZM8.74992 6.45831C7.01659 6.45831 6.45825 7.01665 6.45825 8.74998V11.25C6.45825 12.9833 7.01659 13.5416 8.74992 13.5416H11.2499C12.9833 13.5416 13.5416 12.9833 13.5416 11.25V8.74998C13.5416 7.01665 12.9833 6.45831 11.2499 6.45831H8.74992Z" fill="#74797D"/>
<path d="M6.67505 3.95835C6.32505 3.95835 6.05005 3.67502 6.05005 3.33335V1.66669C6.05005 1.32502 6.33338 1.04169 6.67505 1.04169C7.01672 1.04169 7.30005 1.32502 7.30005 1.66669V3.33335C7.30005 3.67502 7.01672 3.95835 6.67505 3.95835Z" fill="#74797D"/>
<path d="M10 3.95835C9.65833 3.95835 9.375 3.67502 9.375 3.33335V1.66669C9.375 1.32502 9.65833 1.04169 10 1.04169C10.3417 1.04169 10.625 1.32502 10.625 1.66669V3.33335C10.625 3.67502 10.3417 3.95835 10 3.95835Z" fill="#74797D"/>
<path d="M13.3333 3.95835C12.9916 3.95835 12.7083 3.67502 12.7083 3.33335V1.66669C12.7083 1.32502 12.9916 1.04169 13.3333 1.04169C13.6749 1.04169 13.9583 1.32502 13.9583 1.66669V3.33335C13.9583 3.67502 13.6749 3.95835 13.3333 3.95835Z" fill="#74797D"/>
<path d="M18.3334 7.29169H16.6667C16.3251 7.29169 16.0417 7.00835 16.0417 6.66669C16.0417 6.32502 16.3251 6.04169 16.6667 6.04169H18.3334C18.6751 6.04169 18.9584 6.32502 18.9584 6.66669C18.9584 7.00835 18.6834 7.29169 18.3334 7.29169Z" fill="#74797D"/>
<path d="M18.3334 10.625H16.6667C16.3251 10.625 16.0417 10.3417 16.0417 10C16.0417 9.65833 16.3251 9.375 16.6667 9.375H18.3334C18.6751 9.375 18.9584 9.65833 18.9584 10C18.9584 10.3417 18.6834 10.625 18.3334 10.625Z" fill="#74797D"/>
<path d="M18.3334 13.9583H16.6667C16.3251 13.9583 16.0417 13.675 16.0417 13.3333C16.0417 12.9916 16.3251 12.7083 16.6667 12.7083H18.3334C18.6751 12.7083 18.9584 12.9916 18.9584 13.3333C18.9584 13.675 18.6834 13.9583 18.3334 13.9583Z" fill="#74797D"/>
<path d="M13.3333 18.9584C12.9916 18.9584 12.7083 18.675 12.7083 18.3334V16.6667C12.7083 16.325 12.9916 16.0417 13.3333 16.0417C13.6749 16.0417 13.9583 16.325 13.9583 16.6667V18.3334C13.9583 18.675 13.6749 18.9584 13.3333 18.9584Z" fill="#74797D"/>
<path d="M10.0083 18.9584C9.66663 18.9584 9.3833 18.675 9.3833 18.3334V16.6667C9.3833 16.325 9.66663 16.0417 10.0083 16.0417C10.35 16.0417 10.6333 16.325 10.6333 16.6667V18.3334C10.6333 18.675 10.35 18.9584 10.0083 18.9584Z" fill="#74797D"/>
<path d="M6.67505 18.9584C6.33338 18.9584 6.05005 18.675 6.05005 18.3334V16.6667C6.05005 16.325 6.33338 16.0417 6.67505 16.0417C7.01672 16.0417 7.30005 16.325 7.30005 16.6667V18.3334C7.30005 18.675 7.01672 18.9584 6.67505 18.9584Z" fill="#74797D"/>
<path d="M3.33341 7.29169H1.66675C1.32508 7.29169 1.04175 7.01669 1.04175 6.66669C1.04175 6.31669 1.32508 6.04169 1.66675 6.04169H3.33341C3.67508 6.04169 3.95841 6.32502 3.95841 6.66669C3.95841 7.00835 3.68341 7.29169 3.33341 7.29169Z" fill="#74797D"/>
<path d="M3.33341 10.625H1.66675C1.32508 10.625 1.04175 10.3417 1.04175 10C1.04175 9.65833 1.32508 9.375 1.66675 9.375H3.33341C3.67508 9.375 3.95841 9.65833 3.95841 10C3.95841 10.3417 3.68341 10.625 3.33341 10.625Z" fill="#74797D"/>
<path d="M3.33341 13.9583H1.66675C1.32508 13.9583 1.04175 13.675 1.04175 13.3333C1.04175 12.9916 1.32508 12.7083 1.66675 12.7083H3.33341C3.67508 12.7083 3.95841 12.9916 3.95841 13.3333C3.95841 13.675 3.68341 13.9583 3.33341 13.9583Z" fill="#74797D"/>
</svg>
