<svg width="20" height="20" viewBox="0 0 20 20" fill="none" xmlns="http://www.w3.org/2000/svg">
<path d="M13.9498 16.325H6.05815C5.39981 16.325 4.92481 16.3 4.51647 16.2416C1.62481 15.925 1.0498 14.1917 1.0498 11.3167V6.05C1.0498 3.175 1.61648 1.44164 4.53314 1.12497C4.93314 1.06664 5.40815 1.04166 6.05815 1.04166H13.9498C14.5998 1.04166 15.0748 1.06664 15.4915 1.12497C18.3915 1.44164 18.9581 3.175 18.9581 6.05V11.3167C18.9581 14.1917 18.3915 15.925 15.4748 16.2416C15.0831 16.3 14.6081 16.325 13.9498 16.325ZM6.0498 2.29166C5.45814 2.29166 5.03314 2.31668 4.68314 2.36668C2.88314 2.56668 2.29148 3.12501 2.29148 6.05834V11.325C2.29148 14.25 2.88315 14.8167 4.66648 15.0083C5.03315 15.0583 5.45815 15.0833 6.05815 15.0833H13.9498C14.5498 15.0833 14.9665 15.0583 15.3165 15.0083C17.1165 14.8083 17.7081 14.25 17.7081 11.3167V6.05C17.7081 3.125 17.1165 2.55835 15.3331 2.36668C14.9581 2.31668 14.5415 2.29166 13.9415 2.29166H6.0498Z" fill="#171F26"/>
<path d="M14.3833 7.55838H11.3167C10.975 7.55838 10.6917 7.27505 10.6917 6.93338C10.6917 6.59171 10.975 6.30838 11.3167 6.30838H14.3833C14.725 6.30838 15.0083 6.59171 15.0083 6.93338C15.0083 7.27505 14.7333 7.55838 14.3833 7.55838Z" fill="#171F26"/>
<path d="M8.33333 7.76673C7.875 7.76673 7.5 7.39173 7.5 6.9334C7.5 6.47507 7.86667 6.10007 8.33333 6.10007C8.79167 6.10007 9.16667 6.47507 9.16667 6.9334C9.16667 7.39173 8.8 7.76673 8.33333 7.76673Z" fill="#171F26"/>
<path d="M5.70833 7.76673C5.25 7.76673 4.875 7.39173 4.875 6.9334C4.875 6.47507 5.24167 6.10007 5.70833 6.10007H5.71666C6.175 6.10007 6.55 6.47507 6.55 6.9334C6.55 7.39173 6.16667 7.76673 5.70833 7.76673Z" fill="#171F26"/>
<path d="M14.3836 12.3833H5.62527C5.28361 12.3833 4.99194 12.1 4.99194 11.7583C4.99194 11.4167 5.26694 11.1333 5.6086 11.1333H14.3836C14.7253 11.1333 15.0086 11.4167 15.0086 11.7583C15.0086 12.1 14.7336 12.3833 14.3836 12.3833Z" fill="#171F26"/>
<path d="M14.1666 18.9583H5.83325C5.49159 18.9583 5.20825 18.675 5.20825 18.3333C5.20825 17.9917 5.49159 17.7083 5.83325 17.7083H14.1666C14.5083 17.7083 14.7916 17.9917 14.7916 18.3333C14.7916 18.675 14.5083 18.9583 14.1666 18.9583Z" fill="#171F26"/>
</svg>
