<svg width="50" height="70" viewBox="0 0 50 70" fill="none" xmlns="http://www.w3.org/2000/svg">
<g clip-path="url(#clip0_1_2306)">
<path fill-rule="evenodd" clip-rule="evenodd" d="M48.0109 29.5197C48.0109 38.2284 46.02 44.7181 42.0418 48.9468C38.0635 53.1755 31.9164 55.2888 23.6293 55.2888C15.8865 55.2888 10.0123 53.1748 6.00673 48.9468C2.00113 44.7188 -0.00144333 38.3423 -0.000976481 29.8172V1.21519C-5.35857e-05 0.893308 0.128229 0.584863 0.355863 0.357188C0.583498 0.129514 0.891995 0.001108 1.21401 0H15.2532C15.5754 0.000923456 15.884 0.129248 16.1118 0.356943C16.3396 0.584637 16.468 0.893188 16.4689 1.21519V30.4423C16.4689 33.9234 17.1132 36.6023 18.4241 38.4923C19.0747 39.3545 19.9137 40.0568 20.8771 40.5457C21.8405 41.0346 22.9028 41.2971 23.9831 41.3134C25.0635 41.3296 26.1332 41.099 27.1108 40.6392C28.0885 40.1794 28.9482 39.5026 29.6244 38.6603C30.9059 36.887 31.5445 34.2736 31.5403 30.8203V25.347H48.0109V29.5197Z" fill="white"/>
<path fill-rule="evenodd" clip-rule="evenodd" d="M46.7381 22.1501H31.542V1.2726C31.5429 0.935365 31.6773 0.612214 31.9159 0.373755C32.1545 0.135296 32.4777 0.000923671 32.8151 0H35.0896C35.092 3.42332 36.4542 6.7056 38.8766 9.1254C41.2991 11.5452 44.5837 12.9045 48.0084 12.9045H48.0119V22.1501H46.7381Z" fill="white"/>
<path fill-rule="evenodd" clip-rule="evenodd" d="M38.3264 0H46.7389C47.0762 0.000923671 47.3995 0.135296 47.6381 0.373755C47.8767 0.612214 48.0111 0.935365 48.012 1.2726V9.69221C45.4432 9.69221 42.9797 8.67216 41.1633 6.85649C39.3469 5.04082 38.3264 2.57825 38.3264 0.0104996V0Z" fill="#F4821F"/>
<path fill-rule="evenodd" clip-rule="evenodd" d="M2.75691 69.1803C4.61545 69.1803 5.5132 68.1457 5.5132 66.6267V62.9657H4.18268V66.5903C4.18268 66.9702 4.03168 67.3346 3.76292 67.6033C3.49416 67.8719 3.12965 68.0228 2.74956 68.0228C2.36947 68.0228 2.00495 67.8719 1.73618 67.6033C1.46742 67.3346 1.31643 66.9702 1.31643 66.5903V62.9657H-0.00219727V66.6379C-0.00219727 68.1387 0.894865 69.1824 2.75411 69.1824L2.75691 69.1803ZM13.5412 69.0704V67.9266H10.593L13.4775 64.0066V62.9629H8.88996V64.1074H11.7744L8.88996 68.0155V69.0655L13.5412 69.0704ZM19.7555 69.1803C20.2789 69.1924 20.7953 69.0583 21.2467 68.7931C21.698 68.5278 22.0663 68.1419 22.3101 67.6788L21.1897 67.1391C21.0534 67.4037 20.8475 67.6261 20.5942 67.7825C20.3409 67.9389 20.0497 68.0233 19.752 68.0267C19.2373 68.0012 18.7521 67.779 18.3969 67.4058C18.0416 67.0327 17.8435 66.5373 17.8435 66.0222C17.8435 65.5071 18.0416 65.0117 18.3969 64.6386C18.7521 64.2655 19.2373 64.0432 19.752 64.0178C20.0493 64.0231 20.3397 64.1082 20.5927 64.2644C20.8457 64.4206 21.0519 64.642 21.1897 64.9054L22.3101 64.3559C22.0665 63.8933 21.6979 63.5083 21.2464 63.2447C20.7948 62.981 20.2783 62.8492 19.7555 62.8642C19.3328 62.8516 18.9118 62.924 18.5175 63.077C18.1232 63.23 17.7637 63.4606 17.4602 63.7551C17.1567 64.0495 16.9155 64.4019 16.7507 64.7913C16.586 65.1806 16.5011 65.5991 16.5011 66.0219C16.5011 66.4447 16.586 66.8631 16.7507 67.2525C16.9155 67.6419 17.1567 67.9942 17.4602 68.2887C17.7637 68.5832 18.1232 68.8137 18.5175 68.9668C18.9118 69.1198 19.3328 69.1922 19.7555 69.1796V69.1803ZM31.1155 69.0704L28.7625 62.9657H27.133L24.7702 69.0704H26.2534L26.6379 68.0358H29.2569L29.6323 69.0704H31.1155ZM28.8998 66.892H26.995L27.9474 64.2649L28.8998 66.892ZM39.8942 70.602L37.6533 66.7471C38.0538 66.6506 38.4075 66.4159 38.652 66.0844C38.8965 65.7529 39.0163 65.3458 38.9901 64.9348C39.0003 64.6665 38.9536 64.3991 38.853 64.1502C38.7524 63.9013 38.6003 63.6765 38.4065 63.4906C38.2127 63.3047 37.9818 63.162 37.7288 63.0717C37.4759 62.9815 37.2067 62.9458 36.939 62.9671H34.0811V69.0718H35.3816V66.9018H36.3339L38.4012 70.6006L39.8942 70.602ZM36.7464 65.7587H35.3823V64.1116H36.7422C36.8577 64.0994 36.9744 64.1117 37.0848 64.1475C37.1953 64.1834 37.2969 64.242 37.3832 64.3197C37.4695 64.3973 37.5385 64.4923 37.5857 64.5983C37.633 64.7043 37.6574 64.8191 37.6574 64.9351C37.6574 65.0512 37.633 65.166 37.5857 65.272C37.5385 65.378 37.4695 65.4729 37.3832 65.5506C37.2969 65.6282 37.1953 65.6869 37.0848 65.7227C36.9744 65.7586 36.8577 65.7708 36.7422 65.7587H36.7464ZM44.7737 69.0718C46.6876 69.0718 48.0153 67.8636 48.0153 66.024C48.0153 64.1844 46.6848 62.9671 44.7737 62.9671H42.3655V69.0718H44.7737ZM44.7737 67.928H43.6659V64.1116H44.7737C45.0298 64.0927 45.287 64.1292 45.5277 64.2186C45.7685 64.308 45.9871 64.4483 46.1687 64.6297C46.3503 64.8112 46.4907 65.0297 46.5803 65.2703C46.6698 65.5109 46.7064 65.768 46.6876 66.024C46.6983 66.2779 46.6559 66.5312 46.5632 66.7679C46.4705 67.0045 46.3294 67.2192 46.1489 67.3982C45.9685 67.5773 45.7527 67.7167 45.5153 67.8077C45.2779 67.8987 45.0242 67.9392 44.7702 67.9266L44.7737 67.928Z" fill="white"/>
<path fill-rule="evenodd" clip-rule="evenodd" d="M49.5943 62.8509V62.8656C49.5945 63.0905 49.5279 63.3103 49.403 63.4974C49.2781 63.6844 49.1006 63.8302 48.8928 63.9164C48.685 64.0025 48.4563 64.0251 48.2356 63.9813C48.015 63.9375 47.8123 63.8293 47.6532 63.6704C47.494 63.5114 47.3857 63.3089 47.3417 63.0883C47.2978 62.8678 47.3203 62.6392 47.4063 62.4314C47.4924 62.2237 47.6381 62.0461 47.8252 61.9211C48.0122 61.7962 48.2321 61.7295 48.4571 61.7295H49.5936L49.5943 62.8509Z" fill="white"/>
</g>
<defs>
<clipPath id="clip0_1_2306">
<rect width="50" height="70" fill="white"/>
</clipPath>
</defs>
</svg>
