<svg width="20" height="20" viewBox="0 0 20 20" fill="none" xmlns="http://www.w3.org/2000/svg">
<path d="M15.0833 14.7917H4.91666C2.98333 14.7917 1.875 13.6833 1.875 11.75V1.66667C1.875 1.32501 2.15833 1.04167 2.5 1.04167H17.5C17.8417 1.04167 18.125 1.32501 18.125 1.66667V11.75C18.125 13.6833 17.0167 14.7917 15.0833 14.7917ZM3.125 2.29167V11.75C3.125 12.9917 3.67499 13.5417 4.91666 13.5417H15.075C16.3167 13.5417 16.8667 12.9917 16.8667 11.75V2.29167H3.125Z" fill="#74797D"/>
<path d="M18.3334 2.29167H1.66675C1.32508 2.29167 1.04175 2.00834 1.04175 1.66667C1.04175 1.32501 1.32508 1.04167 1.66675 1.04167H18.3334C18.6751 1.04167 18.9584 1.32501 18.9584 1.66667C18.9584 2.00834 18.6751 2.29167 18.3334 2.29167Z" fill="#74797D"/>
<path d="M6.66689 18.9583C6.43355 18.9583 6.21688 18.8333 6.10854 18.6167C5.95021 18.3083 6.07523 17.9333 6.3919 17.775L9.37522 16.2833V14.1667C9.37522 13.825 9.65855 13.5417 10.0002 13.5417C10.3419 13.5417 10.6252 13.825 10.6252 14.1667V16.6667C10.6252 16.9 10.4919 17.1167 10.2752 17.225L6.94188 18.8917C6.85854 18.9334 6.75855 18.9583 6.66689 18.9583Z" fill="#74797D"/>
<path d="M13.3332 18.9583C13.2415 18.9583 13.1416 18.9333 13.0582 18.8917L9.72489 17.225C9.41655 17.0667 9.29153 16.6917 9.44153 16.3833C9.59987 16.075 9.97487 15.95 10.2832 16.1L13.6165 17.7667C13.9249 17.925 14.0499 18.3 13.8999 18.6083C13.7832 18.8333 13.5582 18.9583 13.3332 18.9583Z" fill="#74797D"/>
<path d="M6.24986 9.79166C6.07486 9.79166 5.89153 9.71667 5.76653 9.56667C5.54153 9.3 5.58318 8.90834 5.84985 8.68334L8.47487 6.49166C8.71653 6.29166 9.02485 6.20833 9.31652 6.25833C9.61652 6.30833 9.87486 6.49165 10.0332 6.75831L10.9082 8.21665L13.3498 6.18334C13.6165 5.96667 14.0082 5.99998 14.2332 6.26665C14.4582 6.53331 14.4165 6.92498 14.1499 7.14998L11.5248 9.34165C11.2832 9.54165 10.9749 9.62498 10.6832 9.57498C10.3832 9.52498 10.1248 9.34167 9.96652 9.075L9.09153 7.61667L6.64987 9.64998C6.5332 9.74165 6.39152 9.79166 6.24986 9.79166Z" fill="#74797D"/>
</svg>
