<svg width="20" height="20" viewBox="0 0 20 20" fill="none" xmlns="http://www.w3.org/2000/svg">
<path d="M10.0001 18.9583C5.05841 18.9583 1.04175 14.9417 1.04175 10C1.04175 8.43333 1.45008 6.89168 2.23341 5.53335C2.40841 5.23335 2.78342 5.13332 3.08343 5.29999L10.3084 9.45C10.6084 9.625 10.7084 9.99999 10.5417 10.3C10.3667 10.6 9.99175 10.7 9.69175 10.5333L3.02509 6.70832C2.54175 7.73332 2.29175 8.84999 2.29175 9.99166C2.29175 14.2417 5.75008 17.7 10.0001 17.7C14.2501 17.7 17.7084 14.2417 17.7084 9.99166C17.7084 5.74166 14.2501 2.28333 10.0001 2.28333C8.31675 2.28333 6.71676 2.81666 5.37509 3.825C5.10009 4.03333 4.70841 3.975 4.50008 3.7C4.29174 3.425 4.35007 3.03335 4.62507 2.82501C6.1834 1.65835 8.04175 1.03333 10.0001 1.03333C14.9417 1.03333 18.9584 5.04999 18.9584 9.99166C18.9584 14.9333 14.9417 18.9583 10.0001 18.9583Z" fill="#74797D"/>
<path d="M10 15.625C6.9 15.625 4.375 13.1 4.375 10C4.375 9 4.64166 8.00832 5.14999 7.14999C5.32499 6.84999 5.70833 6.75 6.00833 6.925C6.30833 7.1 6.40834 7.48333 6.23334 7.78333C5.84168 8.45 5.63334 9.21667 5.63334 10C5.63334 12.4167 7.60001 14.375 10.0083 14.375C12.4167 14.375 14.3833 12.4167 14.3833 10C14.3833 7.58333 12.4167 5.625 10.0083 5.625C9.35834 5.625 8.73332 5.76667 8.14166 6.04167C7.82499 6.18333 7.45832 6.05001 7.30832 5.74168C7.15832 5.42501 7.29167 5.05835 7.60834 4.90835C8.35834 4.55835 9.16667 4.375 10 4.375C13.1 4.375 15.625 6.9 15.625 10C15.625 13.1 13.1 15.625 10 15.625Z" fill="#74797D"/>
</svg>
