<svg width="20" height="20" viewBox="0 0 20 20" fill="none" xmlns="http://www.w3.org/2000/svg">
<path d="M10 13.125C8.275 13.125 6.875 11.725 6.875 10C6.875 8.275 8.275 6.875 10 6.875C11.725 6.875 13.125 8.275 13.125 10C13.125 11.725 11.725 13.125 10 13.125ZM10 8.125C8.96667 8.125 8.125 8.96667 8.125 10C8.125 11.0333 8.96667 11.875 10 11.875C11.0333 11.875 11.875 11.0333 11.875 10C11.875 8.96667 11.0333 8.125 10 8.125Z" fill="#74797D"/>
<path d="M12.6751 18.4917C12.5001 18.4917 12.3251 18.4667 12.1501 18.425C11.6334 18.2833 11.2001 17.9583 10.9251 17.5L10.8251 17.3333C10.3334 16.4833 9.65841 16.4833 9.16675 17.3333L9.07508 17.4917C8.80008 17.9583 8.36675 18.2917 7.85008 18.425C7.32508 18.5667 6.78342 18.4917 6.32508 18.2167L4.89175 17.3917C4.38341 17.1 4.01675 16.625 3.85841 16.05C3.70842 15.475 3.78341 14.8833 4.07508 14.375C4.31675 13.95 4.38341 13.5667 4.24175 13.325C4.10008 13.0833 3.74175 12.9417 3.25008 12.9417C2.03341 12.9417 1.04175 11.95 1.04175 10.7333V9.26668C1.04175 8.05001 2.03341 7.05835 3.25008 7.05835C3.74175 7.05835 4.10008 6.91668 4.24175 6.67502C4.38341 6.43335 4.32508 6.05002 4.07508 5.62502C3.78341 5.11668 3.70842 4.51668 3.85841 3.95001C4.00841 3.37501 4.37508 2.90001 4.89175 2.60835L6.33342 1.78335C7.27508 1.22501 8.51675 1.55001 9.08342 2.50835L9.18342 2.67501C9.67508 3.52501 10.3501 3.52501 10.8417 2.67501L10.9334 2.51668C11.5001 1.55001 12.7417 1.22501 13.6917 1.79168L15.1251 2.61668C15.6334 2.90835 16.0001 3.38335 16.1584 3.95835C16.3084 4.53335 16.2334 5.12502 15.9417 5.63335C15.7001 6.05835 15.6334 6.44168 15.7751 6.68335C15.9167 6.92502 16.2751 7.06668 16.7667 7.06668C17.9834 7.06668 18.9751 8.05835 18.9751 9.27501V10.7417C18.9751 11.9583 17.9834 12.95 16.7667 12.95C16.2751 12.95 15.9167 13.0917 15.7751 13.3333C15.6334 13.575 15.6917 13.9583 15.9417 14.3833C16.2334 14.8917 16.3167 15.4917 16.1584 16.0583C16.0084 16.6333 15.6417 17.1083 15.1251 17.4L13.6834 18.225C13.3667 18.4 13.0251 18.4917 12.6751 18.4917ZM10.0001 15.4083C10.7417 15.4083 11.4334 15.875 11.9084 16.7L12.0001 16.8583C12.1001 17.0333 12.2667 17.1583 12.4667 17.2083C12.6667 17.2583 12.8667 17.2333 13.0334 17.1333L14.4751 16.3C14.6917 16.175 14.8584 15.9667 14.9251 15.7167C14.9917 15.4667 14.9584 15.2083 14.8334 14.9917C14.3584 14.175 14.3001 13.3333 14.6667 12.6917C15.0334 12.05 15.7917 11.6833 16.7417 11.6833C17.2751 11.6833 17.7001 11.2583 17.7001 10.725V9.25835C17.7001 8.73335 17.2751 8.30001 16.7417 8.30001C15.7917 8.30001 15.0334 7.93335 14.6667 7.29168C14.3001 6.65002 14.3584 5.80835 14.8334 4.99168C14.9584 4.77501 14.9917 4.51668 14.9251 4.26668C14.8584 4.01668 14.7001 3.81668 14.4834 3.68335L13.0417 2.85835C12.6834 2.64168 12.2084 2.76668 11.9917 3.13335L11.9001 3.29168C11.4251 4.11668 10.7334 4.58335 9.99175 4.58335C9.25008 4.58335 8.55841 4.11668 8.08342 3.29168L7.99175 3.12501C7.78342 2.77501 7.31675 2.65001 6.95842 2.85835L5.51675 3.69168C5.30008 3.81668 5.13341 4.02502 5.06675 4.27502C5.00008 4.52502 5.03341 4.78335 5.15841 5.00002C5.63341 5.81668 5.69175 6.65835 5.32508 7.30002C4.95841 7.94168 4.20008 8.30835 3.25008 8.30835C2.71675 8.30835 2.29175 8.73335 2.29175 9.26668V10.7333C2.29175 11.2583 2.71675 11.6917 3.25008 11.6917C4.20008 11.6917 4.95841 12.0583 5.32508 12.7C5.69175 13.3417 5.63341 14.1833 5.15841 15C5.03341 15.2167 5.00008 15.475 5.06675 15.725C5.13341 15.975 5.29175 16.175 5.50842 16.3083L6.95008 17.1333C7.12508 17.2417 7.33341 17.2667 7.52508 17.2167C7.72508 17.1667 7.89175 17.0333 8.00008 16.8583L8.09175 16.7C8.56675 15.8833 9.25842 15.4083 10.0001 15.4083Z" fill="#74797D"/>
</svg>
