<svg width="20" height="20" viewBox="0 0 20 20" fill="none" xmlns="http://www.w3.org/2000/svg">
<path d="M12.5001 18.9583H7.50008C5.20841 18.9583 3.54175 17.2917 3.54175 15V4.99999C3.54175 2.70832 5.20841 1.04166 7.50008 1.04166H12.5001C14.7917 1.04166 16.4584 2.70832 16.4584 4.99999V15C16.4584 17.2917 14.7917 18.9583 12.5001 18.9583ZM7.50008 2.29166C5.62508 2.29166 4.79175 3.64999 4.79175 4.99999V15C4.79175 16.35 5.62508 17.7083 7.50008 17.7083H12.5001C14.3751 17.7083 15.2084 16.35 15.2084 15V4.99999C15.2084 3.64999 14.3751 2.29166 12.5001 2.29166H7.50008Z" fill="#74797D"/>
<path d="M15.8334 13.9667H4.16675C3.82508 13.9667 3.54175 13.6833 3.54175 13.3417C3.54175 13 3.82508 12.7167 4.16675 12.7167H15.8334C16.1751 12.7167 16.4584 13 16.4584 13.3417C16.4584 13.6833 16.1751 13.9667 15.8334 13.9667Z" fill="#74797D"/>
<path d="M1.66675 17.2917C1.32508 17.2917 1.04175 17.0083 1.04175 16.6667V3.33334C1.04175 2.99168 1.32508 2.70834 1.66675 2.70834C2.00841 2.70834 2.29175 2.99168 2.29175 3.33334V16.6667C2.29175 17.0083 2.00841 17.2917 1.66675 17.2917Z" fill="#74797D"/>
<path d="M18.3333 17.2917C17.9916 17.2917 17.7083 17.0083 17.7083 16.6667V3.33334C17.7083 2.99168 17.9916 2.70834 18.3333 2.70834C18.6749 2.70834 18.9583 2.99168 18.9583 3.33334V16.6667C18.9583 17.0083 18.6749 17.2917 18.3333 17.2917Z" fill="#74797D"/>
</svg>
