<svg width="15" height="18" viewBox="0 0 15 18" fill="none" xmlns="http://www.w3.org/2000/svg">
<path d="M13.0832 9.33329L7.9165 14.5C6.49984 15.9166 4.24984 15.9166 2.9165 14.5C1.49984 13.0833 1.49984 10.8333 2.9165 9.49996L9.58317 2.83329C10.4165 2.08329 11.6665 2.08329 12.4998 2.83329C13.3332 3.66663 13.3332 4.99996 12.4998 5.74996L6.74984 11.5C6.49984 11.75 6.08317 11.75 5.83317 11.5C5.58317 11.25 5.58317 10.8333 5.83317 10.5833L10.0832 6.33329C10.4165 5.99996 10.4165 5.49996 10.0832 5.16663C9.74984 4.83329 9.24984 4.83329 8.9165 5.16663L4.6665 9.49996C3.74984 10.4166 3.74984 11.8333 4.6665 12.75C5.58317 13.5833 6.99984 13.5833 7.9165 12.75L13.6665 6.99996C15.1665 5.49996 15.1665 3.16663 13.6665 1.66663C12.1665 0.166626 9.83317 0.166626 8.33317 1.66663L1.6665 8.33329C0.666504 9.33329 0.166504 10.6666 0.166504 12C0.166504 14.9166 2.49984 17.1666 5.4165 17.1666C6.83317 17.1666 8.08317 16.5833 9.08317 15.6666L14.2498 10.5C14.5832 10.1666 14.5832 9.66663 14.2498 9.33329C13.9165 8.99996 13.4165 8.99996 13.0832 9.33329Z" fill="#1D65F5"/>
</svg>
